<svg xmlns="http://www.w3.org/2000/svg" width="675.951" height="655.038" viewBox="0 0 734.951 712.038">
  <path id="Path_53" data-name="Path 53" d="M1111.38,104.453c428.332,0,426.006,101.113,568.008,241.7s0,240.485,0,320.647-106.882,87.449-219.838,69.231-137.653-71.66-224.7-69.231-123.474,78.947-123.474,78.947" transform="translate(-1110.929 -103.953)" fill="#526d82" stroke="#707070" stroke-width="1"/>
  <path id="Path_54" data-name="Path 54" d="M585.033,624.429c-43.594,33.507-96.737,46.808-154.613,20.384-57.255-26.1-87.476-89.967-137.207-127.158-52.9-39.6-121.06-42.5-178.187-72.912C74.651,423.3,46.948,382.758,40.333,333.365,27.391,236.827,73.647,137.934,154.062,97.4c50.161-25.272,108.612-25.113,159.267-1.647,38.892,18.029,72.748,47.534,111.5,66.342,67.344,32.622,145.448,29.434,209.684,71.389,68.061,44.4,76.956,125.741,61.526,201.434C682.024,503.647,641.554,581,585.033,624.429Z" transform="translate(32.422 53.218)" fill="#407bff" opacity="0.8"/>
  <g id="Thesis-rafiki" transform="translate(94.199 76.51)">
    <g id="freepik--background-complete--inject-11" transform="translate(0 55)">
      <rect id="Rectangle_8" data-name="Rectangle 8" width="33.12" height="0.25" transform="translate(441.979 350.755)" fill="#ebebeb"/>
      <rect id="Rectangle_9" data-name="Rectangle 9" width="8.69" height="0.25" transform="translate(339.072 353.475)" fill="#ebebeb"/>
      <rect id="Rectangle_10" data-name="Rectangle 10" width="19.19" height="0.25" transform="translate(417.375 341.475)" fill="#ebebeb"/>
      <rect id="Rectangle_11" data-name="Rectangle 11" width="43.19" height="0.25" transform="translate(52.46 343.155)" fill="#ebebeb"/>
      <rect id="Rectangle_12" data-name="Rectangle 12" width="6.33" height="0.25" transform="translate(109.897 343.155)" fill="#ebebeb"/>
      <rect id="Rectangle_13" data-name="Rectangle 13" width="93.68" height="0.25" transform="translate(139.623 347.375)" fill="#ebebeb"/>
      <path id="Path_55" data-name="Path 55" d="M238.4,337.8H45.3a5.71,5.71,0,0,1-5.71-5.71V60.66A5.71,5.71,0,0,1,45.3,55H238.4a5.71,5.71,0,0,1,5.71,5.71V332.09A5.71,5.71,0,0,1,238.4,337.8ZM45.3,55.2a5.47,5.47,0,0,0-5.46,5.46V332.09a5.47,5.47,0,0,0,5.46,5.46H238.4a5.47,5.47,0,0,0,5.46-5.46V60.66a5.47,5.47,0,0,0-5.46-5.46Z" transform="translate(0 -55)" fill="#ebebeb"/>
      <path id="Path_56" data-name="Path 56" d="M454.7,337.8H261.6a5.71,5.71,0,0,1-5.71-5.71V60.66A5.71,5.71,0,0,1,261.6,55H454.7a5.71,5.71,0,0,1,5.71,5.71V332.09A5.71,5.71,0,0,1,454.7,337.8ZM261.6,55.2a5.47,5.47,0,0,0-5.46,5.46V332.09a5.47,5.47,0,0,0,5.46,5.46H454.7a5.47,5.47,0,0,0,5.46-5.46V60.66a5.47,5.47,0,0,0-5.46-5.46Z" transform="translate(25.199 -55)" fill="#ebebeb"/>
      <rect id="Rectangle_14" data-name="Rectangle 14" width="525.199" height="0.25" transform="translate(0 334.665)" fill="#ebebeb"/>
      <path id="Path_57" data-name="Path 57" d="M418.92,204.99H347.23L339,110.86h71.69Z" transform="translate(20.335 -53.392)" fill="#f5f5f5"/>
      <path id="Path_58" data-name="Path 58" d="M393.05,123H356.92a.93.93,0,0,1-.92-.84h0a.77.77,0,0,1,.77-.85H392.9a.94.94,0,0,1,.92.85h0a.75.75,0,0,1-.77.84Z" transform="translate(19.41 -55)" fill="#e0e0e0"/>
      <path id="Path_59" data-name="Path 59" d="M405.19,169.05H361a.94.94,0,0,1-.92-.85h0a.77.77,0,0,1,.77-.85H405.1a1,1,0,0,1,.92.85h0a.77.77,0,0,1-.83.85Z" transform="translate(19.983 -52.632)" fill="#e0e0e0"/>
      <path id="Path_60" data-name="Path 60" d="M405.62,174H355.1a.94.94,0,0,1-.92-.85h0a.77.77,0,0,1,.77-.85h50.53a1,1,0,0,1,.92.85h0a.77.77,0,0,1-.78.85Z" transform="translate(19.931 -52.528)" fill="#e0e0e0"/>
      <path id="Path_61" data-name="Path 61" d="M406.06,178.89H355.53a.94.94,0,0,1-.92-.85h0a.77.77,0,0,1,.77-.85h50.53a1,1,0,0,1,.92.85h0a.77.77,0,0,1-.77.85Z" transform="translate(19.956 -52.425)" fill="#e0e0e0"/>
      <path id="Path_62" data-name="Path 62" d="M406.49,183.81H356a1,1,0,0,1-1-.81h0a.77.77,0,0,1,.77-.85H406.3a.94.94,0,0,1,.92.85h0a.77.77,0,0,1-.73.81Z" transform="translate(19.978 -52.321)" fill="#e0e0e0"/>
      <path id="Path_63" data-name="Path 63" d="M406.92,188.73H362.67a1,1,0,0,1-.92-.85h0a.77.77,0,0,1,.77-.85h44.25a.94.94,0,0,1,.92.85h0a.77.77,0,0,1-.77.85Z" transform="translate(20.076 -52.218)" fill="#e0e0e0"/>
      <path id="Path_64" data-name="Path 64" d="M407.35,193.65H356.82a1,1,0,0,1-.92-.85h0a.76.76,0,0,1,.78-.84H407.2a.93.93,0,0,1,.92.84h0a.77.77,0,0,1-.77.85Z" transform="translate(20.028 -52.114)" fill="#e0e0e0"/>
      <path id="Path_65" data-name="Path 65" d="M407.78,198.57H357.25a1,1,0,0,1-.92-.85h0a.76.76,0,0,1,.78-.84h50.52a.93.93,0,0,1,.92.84h0a.77.77,0,0,1-.77.85Z" transform="translate(20.052 -52.01)" fill="#e0e0e0"/>
      <path id="Path_66" data-name="Path 66" d="M389.31,128.62H361.65a.94.94,0,0,1-.92-.85h0a.76.76,0,0,1,.77-.85h27.66a.94.94,0,0,1,.92.85h0a.76.76,0,0,1-.77.85Z" transform="translate(19.314 -53.484)" fill="#e0e0e0"/>
      <path id="Path_67" data-name="Path 67" d="M385.28,134.24H366.66a.94.94,0,0,1-.92-.85h0a.75.75,0,0,1,.77-.84h18.63a.94.94,0,0,1,.92.84h0a.77.77,0,0,1-.78.85Z" transform="translate(19.213 -53.366)" fill="#e0e0e0"/>
      <path id="Path_68" data-name="Path 68" d="M405.32,160.82H353.1l-1.75-20.04h52.22Z" transform="translate(19.85 -53.091)" fill="#e0e0e0" opacity="0.5"/>
      <path id="Path_69" data-name="Path 69" d="M68.73,274.25h59.24l6.8-77.78H75.53Z" transform="translate(0 -51.175)" fill="#f5f5f5"/>
      <path id="Path_70" data-name="Path 70" d="M90.11,206.5H120a.79.79,0,0,0,.76-.7h0a.63.63,0,0,0-.64-.7H90.23a.77.77,0,0,0-.76.7h0a.63.63,0,0,0,.64.7Z" transform="translate(4.81 -51.84)" fill="#e0e0e0"/>
      <path id="Path_71" data-name="Path 71" d="M80.07,244.55h36.56a.77.77,0,0,0,.76-.7h0a.63.63,0,0,0-.64-.7H80.2a.79.79,0,0,0-.77.7h0a.64.64,0,0,0,.64.7Z" transform="translate(4.332 -51.038)" fill="#e0e0e0"/>
      <path id="Path_72" data-name="Path 72" d="M79.72,248.61h41.74a.77.77,0,0,0,.76-.7h0a.63.63,0,0,0-.64-.7H79.84a.78.78,0,0,0-.76.7h0a.63.63,0,0,0,.64.7Z" transform="translate(4.362 -50.953)" fill="#e0e0e0"/>
      <path id="Path_73" data-name="Path 73" d="M79.36,252.68h41.75a.78.78,0,0,0,.76-.7h0a.63.63,0,0,0-.64-.7H79.48a.78.78,0,0,0-.76.7h0a.63.63,0,0,0,.64.7Z" transform="translate(4.342 -50.867)" fill="#e0e0e0"/>
      <path id="Path_74" data-name="Path 74" d="M79,256.74h41.74a.77.77,0,0,0,.76-.7h0a.63.63,0,0,0-.64-.7H79.13a.78.78,0,0,0-.76.7h0a.63.63,0,0,0,.63.7Z" transform="translate(4.322 -50.782)" fill="#e0e0e0"/>
      <path id="Path_75" data-name="Path 75" d="M78.65,260.81h36.56a.78.78,0,0,0,.76-.7h0a.63.63,0,0,0-.64-.7H78.77a.78.78,0,0,0-.76.7h0a.63.63,0,0,0,.64.7Z" transform="translate(4.254 -50.696)" fill="#e0e0e0"/>
      <path id="Path_76" data-name="Path 76" d="M78.29,264.88H120a.78.78,0,0,0,.76-.7h0a.63.63,0,0,0-.64-.7H78.42a.77.77,0,0,0-.76.7h0a.63.63,0,0,0,.63.7Z" transform="translate(4.283 -50.61)" fill="#e0e0e0"/>
      <path id="Path_77" data-name="Path 77" d="M77.94,268.94h41.74a.77.77,0,0,0,.76-.7h0a.62.62,0,0,0-.63-.7H78.06a.77.77,0,0,0-.76.7h0a.63.63,0,0,0,.64.7Z" transform="translate(4.263 -50.525)" fill="#e0e0e0"/>
      <path id="Path_78" data-name="Path 78" d="M93.2,211.14h22.85a.77.77,0,0,0,.76-.7h0a.63.63,0,0,0-.63-.7H93.32a.78.78,0,0,0-.76.7h0a.63.63,0,0,0,.64.7Z" transform="translate(4.902 -51.742)" fill="#e0e0e0"/>
      <path id="Path_79" data-name="Path 79" d="M96.52,215.79h15.4a.79.79,0,0,0,.76-.7h0a.64.64,0,0,0-.64-.7H96.65a.77.77,0,0,0-.76.7h0a.63.63,0,0,0,.63.7Z" transform="translate(5 -51.644)" fill="#e0e0e0"/>
      <path id="Path_80" data-name="Path 80" d="M79.97,237.75h43.14l1.45-16.56H81.42Z" transform="translate(4.425 -51.34)" fill="#e0e0e0" opacity="0.5"/>
      <path id="Path_81" data-name="Path 81" d="M201,185.38h76.38l8.78-100.3H209.77Z" transform="translate(12.209 -55)" fill="#fafafa"/>
      <path id="Path_82" data-name="Path 82" d="M228.56,98h38.5a1,1,0,0,0,1-.9h0a.81.81,0,0,0-.82-.9h-38.5a1,1,0,0,0-1,.9h0a.81.81,0,0,0,.82.9Z" transform="translate(12.484 -55)" fill="#e6e6e6"/>
      <path id="Path_83" data-name="Path 83" d="M215.62,147.08h47.14a1,1,0,0,0,1-.9h0a.82.82,0,0,0-.83-.9H215.78a1,1,0,0,0-1,.9h0a.81.81,0,0,0,.84.9Z" transform="translate(12 -53.097)" fill="#e6e6e6"/>
      <path id="Path_84" data-name="Path 84" d="M215.17,152.33H269a1,1,0,0,0,1-.91h0a.82.82,0,0,0-.83-.9H215.32a1,1,0,0,0-1,.9h0a.83.83,0,0,0,.85.91Z" transform="translate(12.155 -52.986)" fill="#e6e6e6"/>
      <path id="Path_85" data-name="Path 85" d="M214.71,157.57h53.83a1,1,0,0,0,1-.9h0a.82.82,0,0,0-.82-.91H214.86a1,1,0,0,0-1,.91h0a.82.82,0,0,0,.85.9Z" transform="translate(12.129 -52.876)" fill="#e6e6e6"/>
      <path id="Path_86" data-name="Path 86" d="M214.25,162.81h53.83a1,1,0,0,0,1-.9h0a.81.81,0,0,0-.82-.9H214.41a1,1,0,0,0-1,.9h0a.82.82,0,0,0,.84.9Z" transform="translate(12.103 -52.765)" fill="#e6e6e6"/>
      <path id="Path_87" data-name="Path 87" d="M213.79,168.05h47.14a1,1,0,0,0,1-.9h0a.81.81,0,0,0-.82-.9H214a1,1,0,0,0-1,.9h0a.8.8,0,0,0,.79.9Z" transform="translate(11.899 -52.655)" fill="#e6e6e6"/>
      <path id="Path_88" data-name="Path 88" d="M213.33,173.3h53.83a1,1,0,0,0,1-.91h0a.8.8,0,0,0-.82-.9H213.49a1,1,0,0,0-1,.9h0a.81.81,0,0,0,.84.91Z" transform="translate(12.051 -52.544)" fill="#e6e6e6"/>
      <path id="Path_89" data-name="Path 89" d="M212.87,178.54H266.7a1,1,0,0,0,1-.9h0a.81.81,0,0,0-.82-.91H213a1,1,0,0,0-1,.91h0a.81.81,0,0,0,.87.9Z" transform="translate(12.024 -52.434)" fill="#e6e6e6"/>
      <path id="Path_90" data-name="Path 90" d="M232.55,104H262a1,1,0,0,0,1-.9h0a.8.8,0,0,0-.82-.9H232.71a1,1,0,0,0-1,.9h0a.8.8,0,0,0,.84.9Z" transform="translate(12.457 -55)" fill="#e6e6e6"/>
      <path id="Path_91" data-name="Path 91" d="M236.84,110h19.85a1,1,0,0,0,1-.9h0a.82.82,0,0,0-.83-.9H237a1,1,0,0,0-1,.9h0a.82.82,0,0,0,.84.9Z" transform="translate(12.433 -55)" fill="#e6e6e6"/>
      <path id="Path_92" data-name="Path 92" d="M215.49,138.31h55.64l1.86-21.35H217.36Z" transform="translate(12.271 -53.615)" fill="#f0f0f0" opacity="0.5"/>
      <path id="Path_93" data-name="Path 93" d="M422.86,261.11c-.26,3-9.24,4.71-20,3.77s-19.35-4.17-19.08-7.19l1.15-13.21L424,247.9Z" transform="translate(21.033 -50.775)" fill="#ebebeb"/>
      <path id="Path_94" data-name="Path 94" d="M384.57,248.17c1.49,2.74,9.42,5.41,19.16,6.27s18-.4,20-2.84l.32-3.7-39.13-3.42Z" transform="translate(21.043 -50.906)" fill="#e0e0e0" opacity="0.6"/>
      <path id="Path_95" data-name="Path 95" d="M403.63,253.1l-31.47-12.79a.74.74,0,0,1,.07-1.4l33.44-9.59a.72.72,0,0,1,.52,0l31.27,15.26a.74.74,0,0,1-.17,1.39l-33.22,7.13a.74.74,0,0,1-.44,0Z" transform="translate(25.199 -51.075)" fill="#ebebeb"/>
      <rect id="Rectangle_15" data-name="Rectangle 15" width="42.25" height="6.5" transform="translate(103.521 263.207)" fill="#f0f0f0"/>
      <path id="Path_96" data-name="Path 96" d="M99.52,316.45H139a3.27,3.27,0,0,1,3.27,3.27v63.73h-46V319.72a3.26,3.26,0,0,1,3.27-3.27Z" transform="translate(5.343 -47.735)" fill="#e6e6e6"/>
      <rect id="Rectangle_16" data-name="Rectangle 16" width="46" height="10" rx="3.61" transform="translate(101.592 255.092)" fill="#e6e6e6"/>
      <path id="Path_97" data-name="Path 97" d="M148.2,383.45H126.7v-3l21.5-2Z" transform="translate(6.672 -47.735)" fill="#f5f5f5"/>
    </g>
    <g id="freepik--Shadow--inject-11" transform="translate(56.11 411.635)">
      <ellipse id="freepik--path--inject-11" cx="206.489" cy="11.32" rx="206.489" ry="11.32" fill="#f5f5f5"/>
    </g>
    <g id="freepik--Thesis--inject-11" transform="translate(98.987 128.184)">
      <path id="Path_98" data-name="Path 98" d="M194.11,133.61l-10.58,120.9-87.08-7.62,7.09,8.45,87.08,7.62,10.58-120.9Z" transform="translate(-93.006 -125.989)" fill="#263238"/>
      <path id="Path_99" data-name="Path 99" d="M194.11,133.61l-10.58,120.9-87.08-7.62,7.09,8.45,87.08,7.62,10.58-120.9Z" transform="translate(-93.006 -125.989)" fill="#fff" opacity="0.5"/>
      <rect id="Rectangle_17" data-name="Rectangle 17" width="87.41" height="121.37" transform="translate(14.014 0) rotate(5)" fill="#407bff"/>
      <rect id="Rectangle_18" data-name="Rectangle 18" width="87.41" height="121.37" transform="translate(14.014 0) rotate(5)" fill="#fff" opacity="0.6"/>
      <path id="Path_100" data-name="Path 100" d="M196.49,151.17h0a.74.74,0,0,1-.67-.81l.28-3.19a.74.74,0,0,1,.8-.68h0a.74.74,0,0,1,.67.8l-.28,3.2a.74.74,0,0,1-.8.68Z" transform="translate(-93.006 -125.989)" fill="#263238"/>
      <path id="Path_101" data-name="Path 101" d="M191.22,211.37h0a.73.73,0,0,1-.67-.8l4.83-55.22a.73.73,0,0,1,.8-.67h0a.74.74,0,0,1,.68.8L192,210.7a.73.73,0,0,1-.78.67Z" transform="translate(-93.006 -125.989)" fill="#263238"/>
      <path id="Path_102" data-name="Path 102" d="M188.66,240.71h0a.76.76,0,0,1-.68-.81L190,216.53a.73.73,0,0,1,.8-.67h0a.74.74,0,0,1,.67.8l-2,23.37a.75.75,0,0,1-.81.68Z" transform="translate(-93.006 -125.989)" fill="#263238"/>
      <path id="Path_103" data-name="Path 103" d="M187.81,250.42h0a.74.74,0,0,1-.68-.8l.38-4.3a.74.74,0,0,1,.8-.68h0a.74.74,0,0,1,.67.8l-.37,4.31a.74.74,0,0,1-.8.67Z" transform="translate(-93.006 -125.989)" fill="#263238"/>
      <path id="Path_104" data-name="Path 104" d="M127.53,254.27l-15.25-1.33a.75.75,0,0,1-.67-.81h0a.74.74,0,0,1,.8-.67l15.25,1.33a.76.76,0,0,1,.68.81h0a.75.75,0,0,1-.81.67Z" transform="translate(-93.006 -125.989)" fill="#263238"/>
      <path id="Path_105" data-name="Path 105" d="M164.92,257.54l-30.74-2.69a.74.74,0,0,1-.68-.8h0a.74.74,0,0,1,.81-.67l30.74,2.69a.74.74,0,0,1,.68.8h0a.74.74,0,0,1-.81.67Z" transform="translate(-93.006 -125.989)" fill="#263238"/>
      <path id="Path_106" data-name="Path 106" d="M173.53,258.29l-4.18-.36a.74.74,0,0,1-.67-.8h0a.74.74,0,0,1,.8-.68l4.18.37a.74.74,0,0,1,.68.8h0a.74.74,0,0,1-.81.67Z" transform="translate(-93.006 -125.989)" fill="#263238"/>
      <g id="Group_4" data-name="Group 4" transform="translate(18.602 20.498)" opacity="0.4">
        <path id="Path_107" data-name="Path 107" d="M196.49,151.17h0a.74.74,0,0,1-.67-.81l.28-3.19a.74.74,0,0,1,.8-.68h0a.74.74,0,0,1,.67.8l-.28,3.2a.74.74,0,0,1-.8.68Z" transform="translate(-111.607 -146.487)" fill="#fff"/>
        <path id="Path_108" data-name="Path 108" d="M191.22,211.37h0a.73.73,0,0,1-.67-.8l4.83-55.22a.73.73,0,0,1,.8-.67h0a.74.74,0,0,1,.68.8L192,210.7a.73.73,0,0,1-.78.67Z" transform="translate(-111.607 -146.487)" fill="#fff"/>
        <path id="Path_109" data-name="Path 109" d="M188.66,240.71h0a.76.76,0,0,1-.68-.81L190,216.53a.73.73,0,0,1,.8-.67h0a.74.74,0,0,1,.67.8l-2,23.37a.75.75,0,0,1-.81.68Z" transform="translate(-111.607 -146.487)" fill="#fff"/>
        <path id="Path_110" data-name="Path 110" d="M187.81,250.42h0a.74.74,0,0,1-.68-.8l.38-4.3a.74.74,0,0,1,.8-.68h0a.74.74,0,0,1,.67.8l-.37,4.31a.74.74,0,0,1-.8.67Z" transform="translate(-111.607 -146.487)" fill="#fff"/>
        <path id="Path_111" data-name="Path 111" d="M127.53,254.27l-15.25-1.33a.75.75,0,0,1-.67-.81h0a.74.74,0,0,1,.8-.67l15.25,1.33a.76.76,0,0,1,.68.81h0a.75.75,0,0,1-.81.67Z" transform="translate(-111.607 -146.487)" fill="#fff"/>
        <path id="Path_112" data-name="Path 112" d="M164.92,257.54l-30.74-2.69a.74.74,0,0,1-.68-.8h0a.74.74,0,0,1,.81-.67l30.74,2.69a.74.74,0,0,1,.68.8h0a.74.74,0,0,1-.81.67Z" transform="translate(-111.607 -146.487)" fill="#fff"/>
        <path id="Path_113" data-name="Path 113" d="M173.53,258.29l-4.18-.36a.74.74,0,0,1-.67-.8h0a.74.74,0,0,1,.8-.68l4.18.37a.74.74,0,0,1,.68.8h0a.74.74,0,0,1-.81.67Z" transform="translate(-111.607 -146.487)" fill="#fff"/>
      </g>
      <path id="Path_114" data-name="Path 114" d="M111.41,176.32c-3.09.45-12.41-1.09-12.41-1.09l-2.09,24s9.44.1,12.4,1.08a17.939,17.939,0,0,1,2.61,1.58l2.33-26.66a17.6,17.6,0,0,1-2.84,1.09Z" transform="translate(-93.006 -125.989)" fill="#263238"/>
      <path id="Path_115" data-name="Path 115" d="M110.16,200.72c.81.48,1.76,1.15,1.76,1.15l2.33-26.66a20.083,20.083,0,0,1-1.93.83Z" transform="translate(-93.006 -125.989)"/>
      <path id="Path_116" data-name="Path 116" d="M112.17,203.24h0a1.3,1.3,0,0,1-1.18-1.4l2.34-26.75a1.29,1.29,0,0,1,1.41-1.18h0a1.28,1.28,0,0,1,1.17,1.4l-2.34,26.75a1.29,1.29,0,0,1-1.4,1.18Z" transform="translate(-93.006 -125.989)" fill="#263238"/>
      <path id="Path_117" data-name="Path 117" d="M110.77,182.09l-1.09,12.4-8.49-3.6a.87.87,0,0,0-.9.17,5.22,5.22,0,0,1-3.92,1.3,3.4,3.4,0,0,1-2.5-1.24c-1.13-1.44-.94-3.79-.61-5.9a3.89,3.89,0,0,1,4.25-3.31,5.22,5.22,0,0,1,3.41,1.92.86.86,0,0,0,.86.34Zm-2.06,10.78.82-9.35-7.5,1.73a2,2,0,0,1-2-.72A4.12,4.12,0,0,0,97.36,183a2.78,2.78,0,0,0-3,2.39c-.28,1.76-.49,3.92.38,5a2.35,2.35,0,0,0,1.72.81,4.09,4.09,0,0,0,3.1-1,1.94,1.94,0,0,1,2.06-.37Z" transform="translate(-93.006 -125.989)" fill="#263238"/>
      <g id="Group_5" data-name="Group 5" transform="translate(0 55.9)" opacity="0.5">
        <path id="Path_118" data-name="Path 118" d="M110.77,182.09l-1.09,12.4-8.49-3.6a.87.87,0,0,0-.9.17,5.22,5.22,0,0,1-3.92,1.3,3.4,3.4,0,0,1-2.5-1.24c-1.13-1.44-.94-3.79-.61-5.9a3.89,3.89,0,0,1,4.25-3.31,5.22,5.22,0,0,1,3.41,1.92.86.86,0,0,0,.86.34Zm-2.06,10.78.82-9.35-7.5,1.73a2,2,0,0,1-2-.72A4.12,4.12,0,0,0,97.36,183a2.78,2.78,0,0,0-3,2.39c-.28,1.76-.49,3.92.38,5a2.35,2.35,0,0,0,1.72.81,4.09,4.09,0,0,0,3.1-1,1.94,1.94,0,0,1,2.06-.37Z" transform="translate(-93.006 -181.889)" fill="#fff"/>
      </g>
      <path id="Path_119" data-name="Path 119" d="M135.08,142.57l-2-.17.1-1.17,5.4.47-.1,1.17-2-.18-.44,5-1.44-.12Z" transform="translate(-93.006 -125.989)" fill="#263238"/>
      <path id="Path_120" data-name="Path 120" d="M145.06,142.26l-.54,6.2-1.44-.12.22-2.54-2.81-.25-.22,2.54-1.44-.12.54-6.2,1.44.12-.22,2.45,2.82.24.21-2.44Z" transform="translate(-93.006 -125.989)" fill="#263238"/>
      <path id="Path_121" data-name="Path 121" d="M150.89,147.86l-.1,1.15-4.8-.42.54-6.2,4.68.41-.1,1.15-3.26-.28-.11,1.34,2.87.26-.09,1.11-2.88-.25-.13,1.43Z" transform="translate(-93.006 -125.989)" fill="#263238"/>
      <path id="Path_122" data-name="Path 122" d="M152.55,149.07a3.519,3.519,0,0,1-1.06-.61l.59-1a3.18,3.18,0,0,0,.9.55,3.92,3.92,0,0,0,1.08.28,1.74,1.74,0,0,0,.92-.11.54.54,0,0,0,.34-.45.51.51,0,0,0-.14-.39,1.45,1.45,0,0,0-.42-.27c-.18-.08-.42-.16-.72-.26a9.278,9.278,0,0,1-1.13-.44,2,2,0,0,1-.73-.6,1.49,1.49,0,0,1-.23-1,1.72,1.72,0,0,1,.37-.95,2.1,2.1,0,0,1,1-.62,3.7,3.7,0,0,1,1.46-.13,5,5,0,0,1,1.15.25,3.27,3.27,0,0,1,1,.49l-.54,1a3.5,3.5,0,0,0-1.67-.64,1.71,1.71,0,0,0-.91.12.61.61,0,0,0-.33.49.5.5,0,0,0,.29.5,5.2,5.2,0,0,0,1,.4,11.551,11.551,0,0,1,1.13.43,2,2,0,0,1,.73.6,1.43,1.43,0,0,1,.23,1,1.66,1.66,0,0,1-.38,1,2.05,2.05,0,0,1-1,.62,3.77,3.77,0,0,1-1.47.13,5.111,5.111,0,0,1-1.46-.39Z" transform="translate(-93.006 -125.989)" fill="#263238"/>
      <path id="Path_123" data-name="Path 123" d="M158.12,143.41l1.43.12-.54,6.2-1.43-.12Z" transform="translate(-93.006 -125.989)" fill="#263238"/>
      <path id="Path_124" data-name="Path 124" d="M161.11,149.82a3.4,3.4,0,0,1-1.06-.61l.58-1a3.24,3.24,0,0,0,.91.55,3.43,3.43,0,0,0,1.08.27,1.67,1.67,0,0,0,.92-.1.54.54,0,0,0,.33-.46.44.44,0,0,0-.14-.38,1.17,1.17,0,0,0-.42-.27,7.244,7.244,0,0,0-.71-.26,8.67,8.67,0,0,1-1.13-.44,1.8,1.8,0,0,1-.73-.61,1.45,1.45,0,0,1-.24-1,1.73,1.73,0,0,1,.38-.95,2,2,0,0,1,.94-.62,3.74,3.74,0,0,1,1.46-.13,5.46,5.46,0,0,1,1.15.24,3.62,3.62,0,0,1,1,.5l-.54,1a3.43,3.43,0,0,0-1.68-.64,1.66,1.66,0,0,0-.9.12.58.58,0,0,0-.34.49.5.5,0,0,0,.29.5,6,6,0,0,0,1,.39,11.277,11.277,0,0,1,1.13.44,1.93,1.93,0,0,1,.73.6,1.48,1.48,0,0,1,.24,1,1.73,1.73,0,0,1-.38,1,2,2,0,0,1-1,.61,3.61,3.61,0,0,1-1.47.13A5,5,0,0,1,161.11,149.82Z" transform="translate(-93.006 -125.989)" fill="#263238"/>
      <path id="Path_125" data-name="Path 125" d="M171.7,159.55l-47.11-4.12a1.11,1.11,0,0,1-1-1.2h0a1.12,1.12,0,0,1,1.21-1l47.1,4.12a1.1,1.1,0,0,1,1,1.2h0a1.1,1.1,0,0,1-1.2,1Z" transform="translate(-93.006 -125.989)" fill="#263238"/>
      <path id="Path_126" data-name="Path 126" d="M164.9,165.87l-34.71-3a1.11,1.11,0,0,1-1-1.2h0a1.12,1.12,0,0,1,1.21-1l34.7,3a1.1,1.1,0,0,1,1,1.2h0a1.11,1.11,0,0,1-1.2,1Z" transform="translate(-93.006 -125.989)" fill="#263238"/>
      <path id="Path_127" data-name="Path 127" d="M172.6,231.18a.73.73,0,0,1-.8.67l-59.86-5.23a.74.74,0,0,1-.67-.81h0a.73.73,0,0,1,.8-.67l59.86,5.24a.73.73,0,0,1,.67.8Z" transform="translate(-93.006 -125.989)" fill="#263238"/>
      <path id="Path_128" data-name="Path 128" d="M165.8,237.5a.73.73,0,0,1-.8.67L117.54,234a.74.74,0,0,1-.67-.8h0a.74.74,0,0,1,.8-.68l47.46,4.15a.74.74,0,0,1,.67.81Z" transform="translate(-93.006 -125.989)" fill="#263238"/>
      <circle id="Ellipse_4" data-name="Ellipse 4" cx="13.39" cy="13.39" r="13.39" transform="matrix(0.766, -0.643, 0.643, 0.766, 32.905, 68.424)" fill="#407bff"/>
      <path id="Path_129" data-name="Path 129" d="M150.58,200.47c-.08.95-2.9,1.48-6.3,1.18s-6.08-1.31-6-2.26l.37-4.15,12.3,1.07Z" transform="translate(-93.006 -125.989)" fill="#263238"/>
      <path id="Path_130" data-name="Path 130" d="M138.55,196.4c.47.86,3,1.7,6,2s5.66-.13,6.28-.9l.1-1.16-12.3-1.07Z" transform="translate(-93.006 -125.989)" opacity="0.6"/>
      <path id="Path_131" data-name="Path 131" d="M144.54,198l-9.9-4a.23.23,0,0,1,0-.44l10.51-3a.18.18,0,0,1,.16,0l9.83,4.79a.24.24,0,0,1,0,.44L144.68,198a.32.32,0,0,1-.14,0Z" transform="translate(-93.006 -125.989)" fill="#263238"/>
    </g>
    <g id="freepik--Device--inject-11" transform="translate(220.431 154.417)">
      <path id="Path_132" data-name="Path 132" d="M316.76,290.51l-14-31.09H269.94l5,29.09a2.63,2.63,0,0,1-2.14,3H258a1.39,1.39,0,0,0-1.39,1.39h0v1.54a1.39,1.39,0,0,0,1.39,1.39h57.73a1.51,1.51,0,0,0,1.51-1.51v-1.6A5.49,5.49,0,0,0,316.76,290.51Zm-15.18-3.84H285.83a2.1,2.1,0,0,1-2.07-1.75l-2.38-13.73a2.1,2.1,0,0,1,1.72-2.43h12.27a2.1,2.1,0,0,1,1.92,1.23l6.21,13.73a2.13,2.13,0,0,1-1.92,3Z" transform="translate(-205.13 -151.339)" fill="#263238"/>
      <path id="Path_133" data-name="Path 133" d="M316.76,290.51l-14-31.09H269.94l5,29.09a2.63,2.63,0,0,1-2.14,3H258a1.39,1.39,0,0,0-1.39,1.39h0v1.54a1.39,1.39,0,0,0,1.39,1.39h57.73a1.51,1.51,0,0,0,1.51-1.51v-1.6A5.49,5.49,0,0,0,316.76,290.51Zm-15.18-3.84H285.83a2.1,2.1,0,0,1-2.07-1.75l-2.38-13.73a2.1,2.1,0,0,1,1.72-2.43h12.27a2.1,2.1,0,0,1,1.92,1.23l6.21,13.73a2.13,2.13,0,0,1-1.92,3Z" transform="translate(-205.13 -151.339)" fill="#fff" opacity="0.5"/>
      <path id="Path_134" data-name="Path 134" d="M301.58,286.67H285.83a2.1,2.1,0,0,1-2.07-1.75l-2.38-13.73a2.1,2.1,0,0,1,1.72-2.43h12.27a2.1,2.1,0,0,1,1.92,1.23l6.21,13.73a2.13,2.13,0,0,1-1.92,3Z" transform="translate(-205.13 -151.339)" fill="#fff" opacity="0.2"/>
      <path id="Path_135" data-name="Path 135" d="M285.31,268.7h-1.85a2.1,2.1,0,0,0-2.11,2.1,2.188,2.188,0,0,0,0,.36l2.38,13.73a2.08,2.08,0,0,0,2.07,1.74h1.86a2.08,2.08,0,0,1-2.07-1.74l-2.38-13.73a2.105,2.105,0,0,1,2.1-2.46Z" transform="translate(-205.13 -151.339)" fill="#263238"/>
      <path id="Path_136" data-name="Path 136" d="M318.62,290.51l-14-31.07h-1.85l14,31.07a5.58,5.58,0,0,1,.5,2.31v1.61a1.52,1.52,0,0,1-1.51,1.51h1.86a1.52,1.52,0,0,0,1.51-1.51v-1.61a5.58,5.58,0,0,0-.51-2.31Z" transform="translate(-205.13 -151.339)" fill="#263238"/>
      <path id="Path_137" data-name="Path 137" d="M302.72,259.42H269.93l1.29,7.42h34.86Z" transform="translate(-205.13 -151.339)" opacity="0.2"/>
      <path id="Path_138" data-name="Path 138" d="M349.76,262.68H209.87a4.62,4.62,0,0,1-4.69-4.52,4.163,4.163,0,0,1,0-.61l8.84-101.09a5.68,5.68,0,0,1,5.56-5.12H359.5a4.59,4.59,0,0,1,4.69,4.52,4,4,0,0,1,0,.6l-8.85,101.1A5.69,5.69,0,0,1,349.76,262.68Z" transform="translate(-205.13 -151.339)" fill="#263238"/>
      <path id="Path_139" data-name="Path 139" d="M206.16,246.63l-1,10.93a4.59,4.59,0,0,0,4.06,5.09,3,3,0,0,0,.6,0h139.9a5.68,5.68,0,0,0,5.56-5.12l1-10.93Z" transform="translate(-205.13 -151.339)" fill="#407bff"/>
      <path id="Path_140" data-name="Path 140" d="M206.16,246.63l-1,10.93a4.59,4.59,0,0,0,4.06,5.09,3,3,0,0,0,.6,0h139.9a5.68,5.68,0,0,0,5.56-5.12l1-10.93Z" transform="translate(-205.13 -151.339)" fill="#fff" opacity="0.7"/>
      <path id="Path_141" data-name="Path 141" d="M351.34,243.54H211.63a2.49,2.49,0,0,1-2.54-2.45,1.688,1.688,0,0,1,0-.32l7.31-83.55a3.08,3.08,0,0,1,3-2.77H359.14a2.49,2.49,0,0,1,2.54,2.45c0,.1,0,.21,0,.32l-7.31,83.55a3.09,3.09,0,0,1-3.03,2.77Z" transform="translate(-205.13 -151.339)" fill="#407bff"/>
      <path id="Path_142" data-name="Path 142" d="M351.34,243.54H211.63a2.49,2.49,0,0,1-2.54-2.45,1.688,1.688,0,0,1,0-.32l7.31-83.55a3.08,3.08,0,0,1,3-2.77H359.14a2.49,2.49,0,0,1,2.54,2.45c0,.1,0,.21,0,.32l-7.31,83.55a3.09,3.09,0,0,1-3.03,2.77Z" transform="translate(-205.13 -151.339)" fill="#407bff" opacity="0.8"/>
      <path id="Path_143" data-name="Path 143" d="M362.6,151.36h-3.1a4.59,4.59,0,0,1,4.69,4.52,4,4,0,0,1,0,.6l-8.85,101.08a5.68,5.68,0,0,1-5.56,5.12h3.1a5.67,5.67,0,0,0,5.55-5.12l8.85-101.09a4.6,4.6,0,0,0-4.07-5.08Z" transform="translate(-205.13 -151.339)" fill="#407bff"/>
      <path id="Path_144" data-name="Path 144" d="M362.6,151.36h-3.1a4.59,4.59,0,0,1,4.69,4.52,4,4,0,0,1,0,.6l-8.85,101.08a5.68,5.68,0,0,1-5.56,5.12h3.1a5.67,5.67,0,0,0,5.55-5.12l8.85-101.09a4.6,4.6,0,0,0-4.07-5.08Z" transform="translate(-205.13 -151.339)" fill="#fff" opacity="0.2"/>
      <path id="Path_145" data-name="Path 145" d="M246.22,242.92h64.1l7.36-84.15H253.59Z" transform="translate(-205.13 -151.339)" fill="#407bff"/>
      <path id="Path_146" data-name="Path 146" d="M246.22,242.92h64.1l7.36-84.15H253.59Z" transform="translate(-205.13 -151.339)" fill="#fff" opacity="0.7"/>
      <path id="Path_147" data-name="Path 147" d="M269.36,169.62h32.29a.85.85,0,0,0,.83-.76h0a.69.69,0,0,0-.69-.75h-32.3a.85.85,0,0,0-.83.75h0a.69.69,0,0,0,.7.76Z" transform="translate(-205.13 -151.339)" fill="#263238"/>
      <path id="Path_148" data-name="Path 148" d="M258.5,210.79h39.55a.85.85,0,0,0,.83-.76h0a.69.69,0,0,0-.7-.75H258.63a.83.83,0,0,0-.82.75h0a.68.68,0,0,0,.69.76Z" transform="translate(-205.13 -151.339)" fill="#263238"/>
      <path id="Path_149" data-name="Path 149" d="M258.11,215.19h45.17a.83.83,0,0,0,.82-.76h0a.68.68,0,0,0-.69-.75H258.25a.85.85,0,0,0-.83.75h0a.69.69,0,0,0,.69.76Z" transform="translate(-205.13 -151.339)" fill="#263238"/>
      <path id="Path_150" data-name="Path 150" d="M257.73,219.59H302.9a.85.85,0,0,0,.82-.76h0a.68.68,0,0,0-.69-.76H257.86a.84.84,0,0,0-.82.76h0a.68.68,0,0,0,.69.76Z" transform="translate(-205.13 -151.339)" fill="#263238"/>
      <path id="Path_151" data-name="Path 151" d="M257.34,224h45.17a.83.83,0,0,0,.82-.76h0a.68.68,0,0,0-.69-.76H257.48a.85.85,0,0,0-.83.76h0a.69.69,0,0,0,.69.76Z" transform="translate(-205.13 -151.339)" fill="#263238"/>
      <path id="Path_152" data-name="Path 152" d="M257,228.39h39.55a.85.85,0,0,0,.83-.76h0a.69.69,0,0,0-.69-.76h-39.6a.84.84,0,0,0-.82.76h0a.68.68,0,0,0,.73.76Z" transform="translate(-205.13 -151.339)" fill="#263238"/>
      <path id="Path_153" data-name="Path 153" d="M256.57,232.78h45.17a.84.84,0,0,0,.83-.75h0a.69.69,0,0,0-.7-.76H256.71a.85.85,0,0,0-.83.76h0a.68.68,0,0,0,.69.75Z" transform="translate(-205.13 -151.339)" fill="#263238"/>
      <path id="Path_154" data-name="Path 154" d="M256.19,237.18h45.17a.84.84,0,0,0,.82-.75h0a.68.68,0,0,0-.69-.76H256.32a.84.84,0,0,0-.82.76h0a.68.68,0,0,0,.69.75Z" transform="translate(-205.13 -151.339)" fill="#263238"/>
      <path id="Path_155" data-name="Path 155" d="M272.7,174.65h24.73a.83.83,0,0,0,.82-.76h0a.68.68,0,0,0-.69-.76H272.83a.85.85,0,0,0-.82.76h0a.68.68,0,0,0,.69.76Z" transform="translate(-205.13 -151.339)" fill="#263238"/>
      <path id="Path_156" data-name="Path 156" d="M276.3,179.67H293a.85.85,0,0,0,.83-.75h0a.69.69,0,0,0-.7-.76h-16.7a.83.83,0,0,0-.82.76h0a.68.68,0,0,0,.69.75Z" transform="translate(-205.13 -151.339)" fill="#263238"/>
      <g id="Group_6" data-name="Group 6" transform="translate(50.367 16.771)" opacity="0.4">
        <path id="Path_157" data-name="Path 157" d="M269.36,169.62h32.29a.85.85,0,0,0,.83-.76h0a.69.69,0,0,0-.69-.75h-32.3a.85.85,0,0,0-.83.75h0a.69.69,0,0,0,.7.76Z" transform="translate(-255.496 -168.11)" fill="#fff"/>
        <path id="Path_158" data-name="Path 158" d="M258.5,210.79h39.55a.85.85,0,0,0,.83-.76h0a.69.69,0,0,0-.7-.75H258.63a.83.83,0,0,0-.82.75h0a.68.68,0,0,0,.69.76Z" transform="translate(-255.496 -168.11)" fill="#fff"/>
        <path id="Path_159" data-name="Path 159" d="M258.11,215.19h45.17a.83.83,0,0,0,.82-.76h0a.68.68,0,0,0-.69-.75H258.25a.85.85,0,0,0-.83.75h0a.69.69,0,0,0,.69.76Z" transform="translate(-255.496 -168.11)" fill="#fff"/>
        <path id="Path_160" data-name="Path 160" d="M257.73,219.59H302.9a.85.85,0,0,0,.82-.76h0a.68.68,0,0,0-.69-.76H257.86a.84.84,0,0,0-.82.76h0a.68.68,0,0,0,.69.76Z" transform="translate(-255.496 -168.11)" fill="#fff"/>
        <path id="Path_161" data-name="Path 161" d="M257.34,224h45.17a.83.83,0,0,0,.82-.76h0a.68.68,0,0,0-.69-.76H257.48a.85.85,0,0,0-.83.76h0a.69.69,0,0,0,.69.76Z" transform="translate(-255.496 -168.11)" fill="#fff"/>
        <path id="Path_162" data-name="Path 162" d="M257,228.39h39.55a.85.85,0,0,0,.83-.76h0a.69.69,0,0,0-.69-.76h-39.6a.84.84,0,0,0-.82.76h0a.68.68,0,0,0,.73.76Z" transform="translate(-255.496 -168.11)" fill="#fff"/>
        <path id="Path_163" data-name="Path 163" d="M256.57,232.78h45.17a.84.84,0,0,0,.83-.75h0a.69.69,0,0,0-.7-.76H256.71a.85.85,0,0,0-.83.76h0a.68.68,0,0,0,.69.75Z" transform="translate(-255.496 -168.11)" fill="#fff"/>
        <path id="Path_164" data-name="Path 164" d="M256.19,237.18h45.17a.84.84,0,0,0,.82-.75h0a.68.68,0,0,0-.69-.76H256.32a.84.84,0,0,0-.82.76h0a.68.68,0,0,0,.69.75Z" transform="translate(-255.496 -168.11)" fill="#fff"/>
        <path id="Path_165" data-name="Path 165" d="M272.7,174.65h24.73a.83.83,0,0,0,.82-.76h0a.68.68,0,0,0-.69-.76H272.83a.85.85,0,0,0-.82.76h0a.68.68,0,0,0,.69.76Z" transform="translate(-255.496 -168.11)" fill="#fff"/>
        <path id="Path_166" data-name="Path 166" d="M276.3,179.67H293a.85.85,0,0,0,.83-.75h0a.69.69,0,0,0-.7-.76h-16.7a.83.83,0,0,0-.82.76h0a.68.68,0,0,0,.69.75Z" transform="translate(-255.496 -168.11)" fill="#fff"/>
      </g>
      <path id="Path_167" data-name="Path 167" d="M258.39,203.43h46.68l1.56-17.91H259.95Z" transform="translate(-205.13 -151.339)" fill="#fff" opacity="0.5"/>
    </g>
    <g id="freepik--graduation-cap--inject-11" transform="translate(137.047 255.764)">
      <rect id="Rectangle_19" data-name="Rectangle 19" width="40.94" height="38.61" transform="translate(120.35 45.01) rotate(180)" fill="#263238"/>
      <rect id="Rectangle_20" data-name="Rectangle 20" width="40.94" height="38.61" transform="translate(80.41 45.01) rotate(180)" fill="#263238"/>
      <rect id="Rectangle_21" data-name="Rectangle 21" width="41.34" height="5.36" transform="translate(120.34 10.34) rotate(180)" fill="#263238"/>
      <rect id="Rectangle_22" data-name="Rectangle 22" width="73.93" height="6.23" transform="translate(152.94 7.28) rotate(180)" fill="#263238"/>
      <rect id="Rectangle_23" data-name="Rectangle 23" width="40.94" height="38.61" transform="translate(80.41 45.01) rotate(180)" opacity="0.2"/>
      <rect id="Rectangle_24" data-name="Rectangle 24" width="41.34" height="5.36" transform="translate(120.34 10.34) rotate(180)" opacity="0.2"/>
      <rect id="Rectangle_25" data-name="Rectangle 25" width="73.93" height="6.23" transform="translate(152.94 7.28) rotate(180)" opacity="0.2"/>
      <rect id="Rectangle_26" data-name="Rectangle 26" width="73.93" height="6.23" transform="translate(80.81 7.28) rotate(180)" fill="#263238"/>
      <path id="Path_168" data-name="Path 168" d="M134.66,317.6h0a1,1,0,0,0,1-1V256a3.23,3.23,0,0,1,3.23-3.24h68.7a1,1,0,0,0,1-1h0a1,1,0,0,0-1-1h-68.7a5.24,5.24,0,0,0-5.23,5.24v60.6A1,1,0,0,0,134.66,317.6Z" transform="translate(-127.77 -250.76)" fill="#407bff"/>
      <path id="Path_169" data-name="Path 169" d="M134.44,320.2c3.68,0,6.66,4.8,6.66,10.72v7.62h-3.3c-.36,0-2.38-.4-2.38-7.69,0,0-1.12,7.67.74,7.69h-2.81s-1.68-.32-1.68-4.38V328s-2.69,10.5,0,10.5h-3.9v-7.62C127.77,325,130.76,320.2,134.44,320.2Z" transform="translate(-127.77 -250.76)" fill="#407bff"/>
      <path id="Path_170" data-name="Path 170" d="M132.2,318.6h4.48a1,1,0,0,0,1-1h0a1,1,0,0,0-1-1H132.2a1,1,0,0,0-1,1h0A1,1,0,0,0,132.2,318.6Z" transform="translate(-127.77 -250.76)" fill="#407bff"/>
      <path id="Path_171" data-name="Path 171" d="M132.2,320.6h4.48a1,1,0,0,0,1-1h0a1,1,0,0,0-1-1H132.2a1,1,0,0,0-1,1h0A1,1,0,0,0,132.2,320.6Z" transform="translate(-127.77 -250.76)" fill="#407bff"/>
    </g>
    <g id="freepik--Books--inject-11" transform="translate(140.68 303.205)">
      <path id="Path_172" data-name="Path 172" d="M344.5,374.88H162.28v38H344.56a149.169,149.169,0,0,1-.06-38Z" transform="translate(-129.07 -295.94)" fill="#407bff"/>
      <path id="Path_173" data-name="Path 173" d="M344.5,374.88H162.28v38H344.56a149.169,149.169,0,0,1-.06-38Z" transform="translate(-129.07 -295.94)" fill="#fff" opacity="0.7"/>
      <path id="Path_174" data-name="Path 174" d="M195.48,414.88H138.21l-.58-.59a29.2,29.2,0,0,1,0-41.31l.58-.58h57.27l-3.41,3.41a25.22,25.22,0,0,0,0,35.65Z" transform="translate(-129.07 -295.94)" fill="#407bff"/>
      <g id="Group_7" data-name="Group 7" transform="translate(0 76.46)" opacity="0.3">
        <path id="Path_175" data-name="Path 175" d="M195.48,414.88H138.21l-.58-.59a29.2,29.2,0,0,1,0-41.31l.58-.58h57.27l-3.41,3.41a25.22,25.22,0,0,0,0,35.65Z" transform="translate(-129.07 -372.4)"/>
      </g>
      <path id="Path_176" data-name="Path 176" d="M346.37,414.88H191.69l-.17-.17a30.06,30.06,0,0,1-9-20A29.08,29.08,0,0,1,191.1,373l.59-.58H346.37a2,2,0,0,1,2,2h0a2,2,0,0,1-2,2h-153a25.23,25.23,0,0,0,0,34.48h153a2,2,0,0,1,2,2h0A2,2,0,0,1,346.37,414.88Z" transform="translate(-129.07 -295.94)" fill="#407bff"/>
      <path id="Path_177" data-name="Path 177" d="M330.2,389h-8.75a1.5,1.5,0,0,1-1.5-1.5h0a1.5,1.5,0,0,1,1.5-1.5h8.75a1.5,1.5,0,0,1,1.5,1.5h0A1.5,1.5,0,0,1,330.2,389Z" transform="translate(-129.07 -295.94)" fill="#fff"/>
      <path id="Path_178" data-name="Path 178" d="M310,389H228.7a1.5,1.5,0,0,1-1.5-1.5h0a1.5,1.5,0,0,1,1.5-1.5H310a1.5,1.5,0,0,1,1.5,1.5h0A1.5,1.5,0,0,1,310,389Z" transform="translate(-129.07 -295.94)" fill="#fff"/>
      <path id="Path_179" data-name="Path 179" d="M217.7,389h-18a1.5,1.5,0,0,1-1.5-1.5h0a1.5,1.5,0,0,1,1.5-1.5h18a1.5,1.5,0,0,1,1.5,1.5h0A1.5,1.5,0,0,1,217.7,389Z" transform="translate(-129.07 -295.94)" fill="#fff"/>
      <path id="Path_180" data-name="Path 180" d="M330.2,401.71h-77a1.5,1.5,0,0,1-1.5-1.5h0a1.5,1.5,0,0,1,1.5-1.5h77a1.5,1.5,0,0,1,1.5,1.5h0a1.5,1.5,0,0,1-1.5,1.5Z" transform="translate(-129.07 -295.94)" fill="#fff"/>
      <path id="Path_181" data-name="Path 181" d="M242,401.71H199.7a1.5,1.5,0,0,1-1.5-1.5h0a1.5,1.5,0,0,1,1.5-1.5H242a1.5,1.5,0,0,1,1.5,1.5h0a1.5,1.5,0,0,1-1.5,1.5Z" transform="translate(-129.07 -295.94)" fill="#fff"/>
      <path id="Path_182" data-name="Path 182" d="M339.67,298.17h-164v34.2H339.73a134.069,134.069,0,0,1-.06-34.2Z" transform="translate(-129.07 -295.94)" fill="#407bff"/>
      <path id="Path_183" data-name="Path 183" d="M339.67,298.17h-164v34.2H339.73a134.069,134.069,0,0,1-.06-34.2Z" transform="translate(-129.07 -295.94)" fill="#fff" opacity="0.8"/>
      <path id="Path_184" data-name="Path 184" d="M205.55,334.17H154l-.53-.53a26.28,26.28,0,0,1,0-37.17l.53-.53h51.54L202.48,299a22.71,22.71,0,0,0,0,32.09Z" transform="translate(-129.07 -295.94)" fill="#407bff"/>
      <g id="Group_8" data-name="Group 8" transform="translate(16.701 0)" opacity="0.2">
        <path id="Path_185" data-name="Path 185" d="M205.55,334.17H154l-.53-.53a26.28,26.28,0,0,1,0-37.17l.53-.53h51.54L202.48,299a22.71,22.71,0,0,0,0,32.09Z" transform="translate(-145.771 -295.94)" fill="#fff"/>
      </g>
      <path id="Path_186" data-name="Path 186" d="M341.35,334.17H202.14L202,334a27,27,0,0,1-8.06-18,26.1,26.1,0,0,1,7.68-19.53l.53-.53h139.2a1.8,1.8,0,0,1,1.8,1.8h0a1.8,1.8,0,0,1-1.8,1.8H203.64a22.7,22.7,0,0,0,0,31H341.35a1.8,1.8,0,0,1,1.8,1.8h0a1.8,1.8,0,0,1-1.8,1.83Z" transform="translate(-129.07 -295.94)" fill="#407bff"/>
      <g id="Group_9" data-name="Group 9" transform="translate(64.85)" opacity="0.4">
        <path id="Path_187" data-name="Path 187" d="M341.35,334.17H202.14L202,334a27,27,0,0,1-8.06-18,26.1,26.1,0,0,1,7.68-19.53l.53-.53h139.2a1.8,1.8,0,0,1,1.8,1.8h0a1.8,1.8,0,0,1-1.8,1.8H203.64a22.7,22.7,0,0,0,0,31H341.35a1.8,1.8,0,0,1,1.8,1.8h0a1.8,1.8,0,0,1-1.8,1.83Z" transform="translate(-193.92 -295.94)" fill="#fff"/>
      </g>
      <path id="Path_188" data-name="Path 188" d="M326.8,310.92h-7.88a1.35,1.35,0,0,1-1.35-1.35h0a1.35,1.35,0,0,1,1.35-1.35h7.88a1.35,1.35,0,0,1,1.35,1.35h0a1.35,1.35,0,0,1-1.35,1.35Z" transform="translate(-129.07 -295.94)" fill="#fff"/>
      <path id="Path_189" data-name="Path 189" d="M308.57,310.92H235.45a1.34,1.34,0,0,1-1.35-1.35h0a1.34,1.34,0,0,1,1.35-1.35h73.12a1.34,1.34,0,0,1,1.35,1.35h0a1.34,1.34,0,0,1-1.35,1.35Z" transform="translate(-129.07 -295.94)" fill="#fff"/>
      <path id="Path_190" data-name="Path 190" d="M225.55,310.92h-16.2a1.34,1.34,0,0,1-1.35-1.35h0a1.34,1.34,0,0,1,1.35-1.35h16.2a1.34,1.34,0,0,1,1.35,1.35h0a1.34,1.34,0,0,1-1.35,1.35Z" transform="translate(-129.07 -295.94)" fill="#fff"/>
      <path id="Path_191" data-name="Path 191" d="M326.8,322.32H257.5a1.34,1.34,0,0,1-1.35-1.35h0a1.34,1.34,0,0,1,1.35-1.35h69.3a1.35,1.35,0,0,1,1.35,1.35h0a1.35,1.35,0,0,1-1.35,1.35Z" transform="translate(-129.07 -295.94)" fill="#fff"/>
      <path id="Path_192" data-name="Path 192" d="M247.37,322.32h-38A1.34,1.34,0,0,1,208,321h0a1.34,1.34,0,0,1,1.35-1.35h38A1.34,1.34,0,0,1,248.7,321h0A1.34,1.34,0,0,1,247.37,322.32Z" transform="translate(-129.07 -295.94)" fill="#fff"/>
      <path id="Path_193" data-name="Path 193" d="M345.44,336.4h-164v34.2H345.5a134.07,134.07,0,0,1-.06-34.2Z" transform="translate(-129.07 -295.94)" fill="#407bff"/>
      <path id="Path_194" data-name="Path 194" d="M345.44,336.4h-164v34.2H345.5a134.07,134.07,0,0,1-.06-34.2Z" transform="translate(-129.07 -295.94)" fill="#fff" opacity="0.7"/>
      <path id="Path_195" data-name="Path 195" d="M211.33,372.4H159.78l-.52-.53a26.28,26.28,0,0,1,0-37.17l.52-.53h51.55l-3.07,3.07a22.68,22.68,0,0,0,0,32.09Z" transform="translate(-129.07 -295.94)" fill="#407bff"/>
      <path id="Path_196" data-name="Path 196" d="M347.13,372.4H207.91l-.15-.15a27,27,0,0,1-8.06-18,26.16,26.16,0,0,1,7.68-19.53l.53-.53H347.13a1.81,1.81,0,0,1,1.8,1.8h0a1.81,1.81,0,0,1-1.8,1.8H209.42a22.67,22.67,0,0,0,0,31H347.13a1.8,1.8,0,0,1,1.8,1.8h0a1.81,1.81,0,0,1-1.8,1.81Z" transform="translate(-129.07 -295.94)" fill="#407bff"/>
      <g id="Group_10" data-name="Group 10" transform="translate(70.611 38.25)" opacity="0.3">
        <path id="Path_197" data-name="Path 197" d="M347.13,372.4H207.91l-.15-.15a27,27,0,0,1-8.06-18,26.16,26.16,0,0,1,7.68-19.53l.53-.53H347.13a1.81,1.81,0,0,1,1.8,1.8h0a1.81,1.81,0,0,1-1.8,1.8H209.42a22.67,22.67,0,0,0,0,31H347.13a1.8,1.8,0,0,1,1.8,1.8h0a1.81,1.81,0,0,1-1.8,1.81Z" transform="translate(-199.681 -334.19)" fill="#fff"/>
      </g>
      <path id="Path_198" data-name="Path 198" d="M215.12,357.85H223a1.35,1.35,0,0,1,1.35,1.35h0a1.36,1.36,0,0,1-1.35,1.35h-7.88a1.36,1.36,0,0,1-1.35-1.35h0a1.35,1.35,0,0,1,1.35-1.35Z" transform="translate(-129.07 -295.94)" fill="#fff"/>
      <path id="Path_199" data-name="Path 199" d="M233.35,357.85h73.12a1.34,1.34,0,0,1,1.35,1.35h0a1.35,1.35,0,0,1-1.35,1.35H233.35A1.35,1.35,0,0,1,232,359.2h0a1.34,1.34,0,0,1,1.35-1.35Z" transform="translate(-129.07 -295.94)" fill="#fff"/>
      <path id="Path_200" data-name="Path 200" d="M316.37,357.85h16.2a1.34,1.34,0,0,1,1.35,1.35h0a1.35,1.35,0,0,1-1.35,1.35h-16.2A1.36,1.36,0,0,1,315,359.2h0a1.35,1.35,0,0,1,1.37-1.35Z" transform="translate(-129.07 -295.94)" fill="#fff"/>
      <path id="Path_201" data-name="Path 201" d="M215.12,346.45h69.3a1.34,1.34,0,0,1,1.35,1.35h0a1.35,1.35,0,0,1-1.35,1.35h-69.3a1.36,1.36,0,0,1-1.35-1.35h0A1.35,1.35,0,0,1,215.12,346.45Z" transform="translate(-129.07 -295.94)" fill="#fff"/>
      <path id="Path_202" data-name="Path 202" d="M294.55,346.45h38a1.34,1.34,0,0,1,1.35,1.35h0a1.35,1.35,0,0,1-1.35,1.35h-38a1.35,1.35,0,0,1-1.35-1.35h0a1.34,1.34,0,0,1,1.35-1.35Z" transform="translate(-129.07 -295.94)" fill="#fff"/>
    </g>
    <g id="freepik--Character--inject-11" transform="translate(310.506 279.616)">
      <path id="Path_203" data-name="Path 203" d="M317.41,285c.12-4.24,5.4-5.75,5.4-5.75s-.15-.41-.32-1c0,0,.48.6,3.17-.65s3.62-1.72,3.62-1.72a24.409,24.409,0,0,0-5,1.56,1.56,1.56,0,0,1-2.21-.7c-.21-.47-.53-3.08.74-1.89,2.27,2.12,15.44-5.88,19.89-.75s-3.54,6.46-3.54,6.46c-7.88,2.22-12.63,8.41-14.72,11.79-.86,1.38-1.76.34-1.93-.11-.54-1.44-.21-2.14,2.72-5.52,0,0-1.71.82-3.37,4.1-.45-1-.92-1.74-1.58-.72s-1.56,1.11-2,.19c-.08-.19-.37-1.77,2.21-4.88a4.44,4.44,0,0,0-2.84,3.11A15.258,15.258,0,0,1,317.41,285Z" transform="translate(-291.417 -272.351)" fill="#263238"/>
      <path id="Path_204" data-name="Path 204" d="M341.27,280s1.14-4.68-5.86-2.35-2.78,5.1-2.78,5.1Z" transform="translate(-291.417 -272.351)" fill="#407bff"/>
      <path id="Path_205" data-name="Path 205" d="M341.27,280s1.14-4.68-5.86-2.35-2.78,5.1-2.78,5.1Z" transform="translate(-291.417 -272.351)" opacity="0.2"/>
      <path id="Path_206" data-name="Path 206" d="M343.25,281.94s1.38-5.65-7.08-2.84-3.36,6.17-3.36,6.17Z" transform="translate(-291.417 -272.351)" fill="#407bff"/>
      <path id="Path_207" data-name="Path 207" d="M340.18,317.67s2.44-5.88-9.48-8.13-14.19.44-10.7,4.8l4.82,3.33,9.78,3.23,4.19-1.81Z" transform="translate(-291.417 -272.351)" fill="#263238"/>
      <path id="Path_208" data-name="Path 208" d="M340.18,317.67s2.44-5.88-9.48-8.13-14.19.44-10.7,4.8l4.82,3.33,9.78,3.23,4.19-1.81Z" transform="translate(-291.417 -272.351)" opacity="0.2"/>
      <path id="Path_209" data-name="Path 209" d="M297.93,357.54c-18.34,42.3,4.94,58.81,33.95,57.82s81.44-17.14,74.18-37.41c-5.83-16.3-53.36-9.05-68.19-5.6l-7.47-11.83Z" transform="translate(-291.417 -272.351)" fill="#407bff"/>
      <path id="Path_210" data-name="Path 210" d="M297.93,357.54c-18.34,42.3,4.94,58.81,33.95,57.82s81.44-17.14,74.18-37.41c-5.83-16.3-53.36-9.05-68.19-5.6l-7.47-11.83Z" transform="translate(-291.417 -272.351)" opacity="0.2"/>
      <path id="Path_211" data-name="Path 211" d="M368.57,405.17l-13.56,2.89-5.55,1.18-1.47-6.27,5.73-2.04,11.94-4.25Z" transform="translate(-291.417 -272.351)" fill="#eec1bb"/>
      <path id="Path_212" data-name="Path 212" d="M368.57,405.17l-13.56,2.89-1.29-7.13,11.94-4.25Z" transform="translate(-291.417 -272.351)" opacity="0.2"/>
      <path id="Path_213" data-name="Path 213" d="M354.37,399.72l3.89-2.15,2.3,11.81-3.43-.25Z" transform="translate(-291.417 -272.351)" fill="#407bff"/>
      <path id="Path_214" data-name="Path 214" d="M354.37,399.72l3.89-2.15,2.3,11.81-3.43-.25Z" transform="translate(-291.417 -272.351)" fill="#fff" opacity="0.3"/>
      <path id="Path_215" data-name="Path 215" d="M337.88,372.35s62.32-9.05,59.22,2.53c-2.37,8.84-28.12,19.47-28.12,19.47-24-11.73-43.77-11.29-43.77-11.29Z" transform="translate(-291.417 -272.351)" opacity="0.1"/>
      <path id="Path_216" data-name="Path 216" d="M299.59,346.19c1.64-10.05,4.41-24.05,7.89-30.05a6.9,6.9,0,0,1,2.31-2.63s1.4-.12,3.82-.12h.18a80.4,80.4,0,0,1,24.84,4.18,68.406,68.406,0,0,1,8.14,3.32s-3.45,20.89-7.36,25-9,14.65-9,14.65l-32.47-3S298.52,352.69,299.59,346.19Z" transform="translate(-291.417 -272.351)" fill="#263238"/>
      <path id="Path_217" data-name="Path 217" d="M336,311.3a30.007,30.007,0,0,1,1.93-3.79l-8.66-5.46a19.058,19.058,0,0,1,0,2.39c-.19,3-1.24,8.16-5.87,10,0,0,2,7.67,8.38,8.32a4.44,4.44,0,0,0,1,0,4.11,4.11,0,0,0,3.42-4.7s-1.15-.51-1.21-2.51A10.81,10.81,0,0,1,336,311.3Z" transform="translate(-291.417 -272.351)" fill="#eec1bb"/>
      <path id="Path_218" data-name="Path 218" d="M328.23,302.33a15.733,15.733,0,0,1,.24,2.37v.06s1.93,10.76,6.8,10.38a10.83,10.83,0,0,1,.54-4.3,31.737,31.737,0,0,1,1.54-4Z" transform="translate(-291.417 -272.351)" opacity="0.2"/>
      <path id="Path_219" data-name="Path 219" d="M335.19,314.34c9.72,3.93,14.48-1.46,17-12.46,2-8.82.69-14.13-7.69-16.68C330.59,281,321.9,306.87,335.19,314.34Z" transform="translate(-291.417 -272.351)" fill="#eec1bb"/>
      <path id="Path_220" data-name="Path 220" d="M345.52,306.84a2.37,2.37,0,0,0,2.49-.27,18.76,18.76,0,0,1-1.37-4.22Z" transform="translate(-291.417 -272.351)" fill="#d58745"/>
      <path id="Path_221" data-name="Path 221" d="M341.83,299.27c.17-.61.59-1,1-1h0l1.67-.17a1.9,1.9,0,0,1-1.1.52,1.48,1.48,0,0,1,.12,1.16c-.2.69-.73,1.15-1.19,1S341.63,300,341.83,299.27Z" transform="translate(-291.417 -272.351)" fill="#263238"/>
      <path id="Path_222" data-name="Path 222" d="M349.48,301.54a1.226,1.226,0,0,1,1-1l1.62-.17a1.91,1.91,0,0,1-1.1.51,1.47,1.47,0,0,1,.11,1.17c-.19.69-.72,1.15-1.18,1S349.29,302.23,349.48,301.54Z" transform="translate(-291.417 -272.351)" fill="#263238"/>
      <path id="Path_223" data-name="Path 223" d="M341.43,294.84h0a.36.36,0,0,1,.34-.38,4.87,4.87,0,0,1,3.88,2,.362.362,0,1,1-.59.42,4.24,4.24,0,0,0-3.25-1.72.35.35,0,0,1-.2-.05.33.33,0,0,1-.18-.27Z" transform="translate(-291.417 -272.351)" fill="#263238"/>
      <path id="Path_224" data-name="Path 224" d="M353,298.69a3.6,3.6,0,0,0-3.19-.5h0a.39.39,0,0,1-.48-.2h0a.37.37,0,0,1,.19-.48,4.42,4.42,0,0,1,3.85.55h0a.34.34,0,0,1,.11.48.32.32,0,0,1-.19.15.37.37,0,0,1-.29,0Z" transform="translate(-291.417 -272.351)" fill="#263238"/>
      <path id="Path_225" data-name="Path 225" d="M329.14,306.44c-5.52-8.55.84-29.64,15.14-24.91s8.11,19.19,8.11,19.19c2.49-9.88-1.63-11.36-6.44-12.64a7.44,7.44,0,0,0-8.44,3.56,10.87,10.87,0,0,1-6.47,4.88C327.31,300.09,329.18,306.44,329.14,306.44Z" transform="translate(-291.417 -272.351)" fill="#263238"/>
      <path id="Path_226" data-name="Path 226" d="M343.23,309a2.79,2.79,0,0,1-2.78-2.37.21.21,0,0,1,.19-.24.22.22,0,0,1,.24.19,2.31,2.31,0,0,0,2.36,2,.24.24,0,0,1,.19.18.23.23,0,0,1-.19.26Z" transform="translate(-291.417 -272.351)" fill="#2e353a"/>
      <path id="Path_227" data-name="Path 227" d="M342.48,335.18s2.85,19.09,4.76,22.76,13.91,16,13.91,16l3.2-1.66s-11.28-14.1-12.08-16.74S349,330.75,349,330.75Z" transform="translate(-291.417 -272.351)" fill="#eec1bb"/>
      <path id="Path_228" data-name="Path 228" d="M340.54,333.6l1.47-8.31,4.74-4.39c3.54,1.88,4.19,12.84,4.34,17.3.13,3.87.22,12.75,1.74,16.65,1.72,4.4,11,15.38,11,15.38l-4.37,3.12s-11-9.25-14.11-16.37S340.54,333.6,340.54,333.6Z" transform="translate(-291.417 -272.351)" fill="#263238"/>
      <path id="Path_229" data-name="Path 229" d="M348.76,410.66a.21.21,0,0,1,.2-.08.2.2,0,0,1,.17.13c0,.09,1.05,3.15.43,4.38a1,1,0,0,1-.57.46.74.74,0,0,1-.81-.15,3.42,3.42,0,0,1-.13-2.4A13.723,13.723,0,0,1,348.76,410.66Zm.57,3.86a8.76,8.76,0,0,0-.45-3.21c-.47,1.41-.85,3.36-.42,3.83.05.07.16.15.4.05a.55.55,0,0,0,.34-.31,2.06,2.06,0,0,0,.12-.35Z" transform="translate(-291.417 -272.351)" fill="#407bff"/>
      <path id="Path_230" data-name="Path 230" d="M348.79,410.62a.21.21,0,0,1,.19-.08,5.181,5.181,0,0,1,2.75,1.81,1.42,1.42,0,0,1,.1,1.07c-.15.49-.44.61-.66.58-.87,0-2.17-2.21-2.39-3.23v-.07a.2.2,0,0,1,.01-.08Zm2.71,2.59a1,1,0,0,0-.1-.68,4.44,4.44,0,0,0-2.18-1.51c.37,1,1.45,2.56,2,2.62.06,0,.19,0,.29-.33v-.1Z" transform="translate(-291.417 -272.351)" fill="#407bff"/>
      <path id="Path_231" data-name="Path 231" d="M349,411.77c-2.72,2-4.68,2.2-6.73,8.23-.45,1.29-3.93,0-3.25-3.15,1.14-5.25,1.44-4,2.35-8.49.81-3.78,1.19-6.52,1.75-9.58l.11-.25h0a1.14,1.14,0,0,1,1.52-.6l6.59,2.94a.69.69,0,0,1,.39.77l-1.7,8.45a2.77,2.77,0,0,1-1.03,1.68Z" transform="translate(-291.417 -272.351)" fill="#263238"/>
      <path id="Path_232" data-name="Path 232" d="M375.51,401.41l13.26,4.04,5.44,1.65-1.76,6.2-6-.99-12.5-2.05Z" transform="translate(-291.417 -272.351)" fill="#eec1bb"/>
      <path id="Path_233" data-name="Path 233" d="M375.51,401.41l13.26,4.04-2.32,6.86-12.5-2.05Z" transform="translate(-291.417 -272.351)" opacity="0.2"/>
      <path id="Path_234" data-name="Path 234" d="M384.64,412.06c-28.05-2.42-60.12-12.77-60.12-12.77s-5.16-5.06-6.48-1.43,7.81,16.52,7.81,16.52-13.4-2.4-20.66-12.07-4.69-25.19,12.87-26,68.56,27.84,68.56,27.84Z" transform="translate(-291.417 -272.351)" fill="#407bff"/>
      <path id="Path_235" data-name="Path 235" d="M385.3,412.81h-4.45l3.71-11.38,2.88,1.94Z" transform="translate(-291.417 -272.351)" fill="#407bff"/>
      <path id="Path_236" data-name="Path 236" d="M385.3,412.81h-4.45l3.71-11.38,2.88,1.94Z" transform="translate(-291.417 -272.351)" fill="#fff" opacity="0.3"/>
      <path id="Path_237" data-name="Path 237" d="M395.47,405.38a.22.22,0,0,1-.36-.1c0-.1-.54-3.28.27-4.39a1,1,0,0,1,.64-.36.71.71,0,0,1,.77.27,3.41,3.41,0,0,1-.25,2.39,13.45,13.45,0,0,1-1.07,2.19Zm0-3.9a8.62,8.62,0,0,0-.07,3.24c.69-1.31,1.38-3.18,1-3.7,0-.08-.13-.18-.4-.12a.55.55,0,0,0-.37.26,1.409,1.409,0,0,0-.17.32Z" transform="translate(-291.417 -272.351)" fill="#407bff"/>
      <path id="Path_238" data-name="Path 238" d="M395.43,405.43a.22.22,0,0,1-.19,0c-.09-.05-2-1-2.43-2.22a1.37,1.37,0,0,1,.07-1.07c.22-.47.52-.53.74-.48.85.17,1.79,2.54,1.85,3.58v.07Zm-2.26-3a1,1,0,0,0,0,.69,4.44,4.44,0,0,0,1.91,1.83c-.2-1.08-1-2.76-1.54-2.9-.06,0-.19,0-.33.28v.1Z" transform="translate(-291.417 -272.351)" fill="#407bff"/>
      <path id="Path_239" data-name="Path 239" d="M395.44,404.26c3-1.5,5-1.43,7.95-7.05.66-1.21,3.89.6,2.71,3.62-2,5-2.05,3.73-3.66,8-1.4,3.6-2.21,6.24-3.25,9.18l-.15.22h0a1.14,1.14,0,0,1-1.59.35l-6-4a.7.7,0,0,1-.27-.82l3-8.08A2.76,2.76,0,0,1,395.44,404.26Z" transform="translate(-291.417 -272.351)" fill="#263238"/>
      <path id="Path_240" data-name="Path 240" d="M308,358.47a35.716,35.716,0,0,1-2.26-4.2c-2.18-4.67-2.87-16-3.08-23.86a90.841,90.841,0,0,1,2.73-9.58l5.68-2.56,2.67,4.51,1.65,3.51s1.73,21.13,6,26.06c2.79,3.18,5.58,6.25,7.21,8Z" transform="translate(-291.417 -272.351)" opacity="0.2"/>
      <path id="Path_241" data-name="Path 241" d="M337.15,373.11s-18.89-17.7-20.69-22.49-2.86-26.16-2.86-26.16l-8.6,4.13s5.11,26,6.7,28.51c2.15,3.46,21.69,17.93,21.69,17.93Z" transform="translate(-291.417 -272.351)" fill="#eec1bb"/>
      <path id="Path_242" data-name="Path 242" d="M309.78,313.52c6.68-1.64,5.47,14.47,5.68,19.65.17,4.06,1,13.23,2.87,17.27,2.75,5.88,16.57,19.85,16.57,19.85l-3.51,3.92s-18.25-12.81-21.22-17.36C307.8,353.23,296.63,316.75,309.78,313.52Z" transform="translate(-291.417 -272.351)" fill="#263238"/>
      <path id="Path_243" data-name="Path 243" d="M344.78,330.89c0,4.17,0,14.31-1.39,20.05-.73-3-1.32-6.22-1.77-9.1a81.623,81.623,0,0,0,3.16-10.95Z" transform="translate(-291.417 -272.351)" opacity="0.2"/>
      <path id="Path_244" data-name="Path 244" d="M331.87,295.3s3.59,1.47.86,5.49a6.76,6.76,0,0,0-.86-5.49Z" transform="translate(-291.417 -272.351)" fill="#263238"/>
      <path id="Path_245" data-name="Path 245" d="M331.66,327.6s11.77-9.88,7.65-11.57S329.65,323.35,331.66,327.6Z" transform="translate(-291.417 -272.351)" fill="#263238"/>
      <path id="Path_246" data-name="Path 246" d="M320.17,317.44l-3-3.94q2.85.15,5.69.5l3.56,4.27,2.83,4.51,1.45,1.68v2.22S323.58,321.94,320.17,317.44Z" transform="translate(-291.417 -272.351)" opacity="0.2"/>
      <path id="Path_247" data-name="Path 247" d="M331.67,328.21s.05-15.93-10.33-18.06S332.05,326.78,331.67,328.21Z" transform="translate(-291.417 -272.351)" fill="#263238"/>
      <path id="Path_248" data-name="Path 248" d="M353,293.35v-.17c1.5-.09,4.74.09,4.42,3.28-.42,4.13-3.67,9.46-1.58,11.79,0,0-3.22-1.27-1-10.33C355.69,294.53,354.05,293.6,353,293.35Z" transform="translate(-291.417 -272.351)" fill="#263238"/>
      <path id="Path_249" data-name="Path 249" d="M329.46,301.84c-6.07-3.25-3.2-8.2-.52-7.69h0a3.83,3.83,0,0,1,2.93,4.56C331.13,301.56,330.33,302.31,329.46,301.84Z" transform="translate(-291.417 -272.351)" fill="#eec1bb"/>
      <path id="Path_250" data-name="Path 250" d="M339.18,299.82l-8.75-5,.28-.84,8.82,5,5.62,2.05,2.94,1,4.83,1.57-.3,1.45c-.21,1.06-1.05,1.69-1.86,1.41l-1.87-.65a2.1,2.1,0,0,1-1.08-2.43l.09-.46L345,302l-.09.47c-.22,1.05-1.05,1.68-1.87,1.4l-2.87-1a2.11,2.11,0,0,1-1.08-2.43Z" transform="translate(-291.417 -272.351)" fill="#263238"/>
      <g id="Group_11" data-name="Group 11" transform="translate(47.723 29.284)" opacity="0.4">
        <path id="Path_251" data-name="Path 251" d="M344.5,303.27a1.3,1.3,0,0,1-1.49.55l-2.87-1a1.73,1.73,0,0,1-1-1.18,8.69,8.69,0,0,1,5.36,1.63Z" transform="translate(-339.14 -301.635)"/>
        <path id="Path_252" data-name="Path 252" d="M352.26,305.93a1.32,1.32,0,0,1-1.5.58l-1.87-.65a1.81,1.81,0,0,1-1.07-1.39,8.56,8.56,0,0,1,4.44,1.46Z" transform="translate(-339.14 -301.635)"/>
      </g>
      <path id="Path_253" data-name="Path 253" d="M364.63,371.38l7-.82a1.08,1.08,0,0,1,.95.36L376.2,375a1.09,1.09,0,0,1-.27,1.67l-1.05.61a1.08,1.08,0,0,1-.86.1l-6.21-1.85h-.13l-6.11-1a1.09,1.09,0,0,1-.84-1.45h0a1.1,1.1,0,0,1,.71-.67l3-.92Z" transform="translate(-291.417 -272.351)" fill="#eec1bb"/>
      <path id="Path_254" data-name="Path 254" d="M336.6,372.42l7-.82a1.1,1.1,0,0,1,.95.36l3.61,4.08a1.09,1.09,0,0,1-.26,1.67l-1.05.61a1.15,1.15,0,0,1-.87.11l-6.21-1.86h-.13l-6.1-1a1.09,1.09,0,0,1-.85-1.45h0a1.1,1.1,0,0,1,.71-.67l3-.92Z" transform="translate(-291.417 -272.351)" fill="#eec1bb"/>
      <rect id="Rectangle_27" data-name="Rectangle 27" width="17.25" height="2.77" transform="translate(80.943 107.419) rotate(180)" fill="#263238"/>
      <path id="Path_255" data-name="Path 255" d="M0,0H21.88a1.36,1.36,0,0,1,1.36,1.36V2.77H0Z" transform="translate(65.113 107.409) rotate(180)" fill="#263238"/>
      <path id="Path_256" data-name="Path 256" d="M0,0H21.88a1.36,1.36,0,0,1,1.36,1.36V2.77H0Z" transform="translate(65.113 107.409) rotate(180)" fill="#fff" opacity="0.3"/>
      <rect id="Rectangle_28" data-name="Rectangle 28" width="2.77" height="0.98" transform="translate(61.633 106.519) rotate(180)" fill="#263238"/>
      <rect id="Rectangle_29" data-name="Rectangle 29" width="2.77" height="0.98" transform="translate(57.313 106.519) rotate(180)" fill="#263238"/>
      <path id="Path_257" data-name="Path 257" d="M359.83,377h-1.84l7.2-25.04h1.84Z" transform="translate(-291.417 -272.351)" fill="#263238"/>
      <path id="Path_258" data-name="Path 258" d="M359.83,377h-1.84l7.2-25.04h1.84Z" transform="translate(-291.417 -272.351)" fill="#fff" opacity="0.3"/>
      <path id="Path_259" data-name="Path 259" d="M359.15,377h32.37l7.2-25.04H366.35Z" transform="translate(-291.417 -272.351)" fill="#263238"/>
      <path id="Path_260" data-name="Path 260" d="M359.15,377h32.37l7.2-25.04H366.35Z" transform="translate(-291.417 -272.351)" fill="#fff" opacity="0.6"/>
      <path id="Path_261" data-name="Path 261" d="M357.56,377h33.7c.57,0,1,.62,1,1.39s-.46,1.38-1,1.38h-33.7c-.57,0-1-.62-1-1.38S357,377,357.56,377Z" transform="translate(-291.417 -272.351)" fill="#263238"/>
      <path id="Path_262" data-name="Path 262" d="M357.56,377h33.7c.57,0,1,.62,1,1.39s-.46,1.38-1,1.38h-33.7c-.57,0-1-.62-1-1.38S357,377,357.56,377Z" transform="translate(-291.417 -272.351)" fill="#fff" opacity="0.5"/>
      <ellipse id="Ellipse_5" data-name="Ellipse 5" cx="1.03" cy="1.38" rx="1.03" ry="1.38" transform="translate(65.113 104.649)" fill="#263238"/>
      <ellipse id="Ellipse_6" data-name="Ellipse 6" cx="1.03" cy="1.38" rx="1.03" ry="1.38" transform="translate(65.113 104.649)" fill="#fff" opacity="0.3"/>
      <path id="Path_263" data-name="Path 263" d="M377.99,366.19h4.41l.98-3.42h-4.41Z" transform="translate(-291.417 -272.351)" fill="#fff" opacity="0.6"/>
    </g>
  </g>
</svg>
